<?xml version="1.0" encoding="UTF-8" standalone="no"?>
<!-- Created with Inkscape (http://www.inkscape.org/) -->

<svg
   width="81.171875mm"
   height="81.171875mm"
   viewBox="0 0 81.171873 81.171877"
   version="1.1"
   id="svg1"
   inkscape:version="1.3 (0e150ed6c4, 2023-07-21)"
   sodipodi:docname="NEW NEW logo.svg"
   inkscape:export-filename="logo.svg"
   inkscape:export-xdpi="98.762985"
   inkscape:export-ydpi="98.762985"
   xmlns:inkscape="http://www.inkscape.org/namespaces/inkscape"
   xmlns:sodipodi="http://sodipodi.sourceforge.net/DTD/sodipodi-0.dtd"
   xmlns:xlink="http://www.w3.org/1999/xlink"
   xmlns="http://www.w3.org/2000/svg"
   xmlns:svg="http://www.w3.org/2000/svg">
  <sodipodi:namedview
     id="namedview1"
     pagecolor="#ffffff"
     bordercolor="#000000"
     borderopacity="0.25"
     inkscape:showpageshadow="2"
     inkscape:pageopacity="0.0"
     inkscape:pagecheckerboard="0"
     inkscape:deskcolor="#d1d1d1"
     inkscape:document-units="mm"
     inkscape:zoom="1.5282058"
     inkscape:cx="94.882507"
     inkscape:cy="214.95796"
     inkscape:window-width="2560"
     inkscape:window-height="1417"
     inkscape:window-x="-8"
     inkscape:window-y="-8"
     inkscape:window-maximized="1"
     inkscape:current-layer="g94"
     showgrid="false" />
  <defs
     id="defs1">
    <linearGradient
       id="linearGradient1"
       inkscape:collect="always">
      <stop
         style="stop-color:#00d4aa;stop-opacity:1;"
         offset="0"
         id="stop1" />
      <stop
         style="stop-color:#00d3aa;stop-opacity:1;"
         offset="0.38683674"
         id="stop3" />
      <stop
         style="stop-color:#0094a8;stop-opacity:1;"
         offset="1"
         id="stop2" />
    </linearGradient>
    <radialGradient
       inkscape:collect="always"
       xlink:href="#linearGradient1"
       id="radialGradient2"
       cx="-105.3523"
       cy="-53.014046"
       fx="-105.3523"
       fy="-53.014046"
       r="132.16447"
       gradientTransform="matrix(1,0,0,1.1544321,0,8.1870731)"
       gradientUnits="userSpaceOnUse" />
  </defs>
  <g
     inkscape:label="Logo"
     inkscape:groupmode="layer"
     id="layer1"
     transform="translate(-73.035165,-94.395863)">
    <path
       sodipodi:type="star"
       style="fill:url(#radialGradient2);stroke:#00f1cd;stroke-width:21.6497;stroke-linecap:butt;stroke-linejoin:round;stroke-dasharray:none;paint-order:stroke markers fill"
       id="path1"
       inkscape:flatsided="true"
       sodipodi:sides="4"
       sodipodi:cx="-105.3523"
       sodipodi:cy="-53.00333"
       sodipodi:r1="152.42564"
       sodipodi:r2="132.00449"
       sodipodi:arg1="-0.52359878"
       sodipodi:arg2="0.26179938"
       inkscape:rounded="3.469447e-18"
       inkscape:randomized="0"
       d="M 26.652177,-129.21615 -29.13948,79.001149 -237.35678,23.209492 -181.56513,-185.00781 Z"
       transform="matrix(0.33053123,-0.08856558,0.08856558,0.33053123,153.1376,143.17047)"
       inkscape:label="Square" />
    <g
       id="g93"
       transform="matrix(0.83494039,0,0,0.83494039,18.897029,22.499784)"
       inkscape:label="Letter">
      <path
         style="fill:#ffffff;fill-opacity:1;stroke:none;stroke-width:6.82001;stroke-linecap:butt;stroke-linejoin:round;stroke-dasharray:none;paint-order:stroke markers fill"
         id="path92"
         d="m 97.537071,105.60047 c 1.1551,4.64622 1.72263,9.41423 2.25476,14.16396 0.427999,4.72132 0.635109,9.488 0.05,14.20692 -0.35463,2.86019 -0.5932,3.48149 -1.27509,6.24307 -0.97425,3.28604 -2.37767,6.41192 -3.88356,9.48131 0,0 4.98071,2.82387 4.98071,2.82387 v 0 c 1.457469,-3.13935 2.850269,-6.31662 3.824849,-9.6459 0.68165,-2.7825 0.93235,-3.45668 1.28492,-6.33658 0.58134,-4.74852 0.37507,-9.54789 -0.002,-14.30202 -0.48135,-4.70055 -1.02124,-9.39957 -1.87453,-14.04962 z"
         inkscape:label="path2" />
      <path
         style="fill:#ffffff;fill-opacity:1;stroke:none;stroke-width:6.82001;stroke-linecap:butt;stroke-linejoin:round;stroke-dasharray:none;paint-order:stroke markers fill"
         id="path93"
         d="m 92.225271,111.93914 c 3.24147,-2.51421 7.34706,-3.47902 11.226049,-4.53748 4.55675,-1.17746 9.26393,-1.77353 13.94246,-0.98022 2.97204,0.50395 4.37078,0.88898 6.28278,1.96581 1.05904,0.59645 2.73509,2.41148 2.73509,2.41148 1.80217,1.73017 3.06605,3.50088 4.41111,5.57368 1.80019,2.9934 2.65279,6.34577 3.24245,9.75061 0.46039,3.23785 0.59923,6.51322 0.38543,9.77473 -0.3166,3.53043 -1.6321,6.84804 -3.41318,9.88897 -0.4165,0.71111 -0.88823,1.3884 -1.33234,2.08259 -1.3878,1.90985 -2.87236,3.73748 -4.69728,5.25002 -1.86264,1.54382 -3.93329,2.71484 -6.04951,3.86255 -3.84406,1.93964 -7.86338,3.5535 -12.01874,4.69419 -0.85019,0.23339 -1.71153,0.42411 -2.56729,0.63617 -2.65682,0.67554 -5.363239,0.92599 -8.093869,0.89916 l 4.687079,3.40007 v 0 c 2.72507,-0.0673 5.42196,-0.38809 8.06534,-1.08788 5.06934,-1.30875 10.04936,-2.97315 14.68976,-5.43413 1.80877,-1.00267 2.52905,-1.34157 4.23433,-2.53149 2.64807,-1.84779 4.8269,-4.17002 6.65474,-6.82689 0.45239,-0.70593 0.93035,-1.39612 1.35718,-2.1178 1.82989,-3.09398 3.24556,-6.45426 3.61361,-10.05521 0.045,-0.57596 0.10887,-1.15076 0.13496,-1.72789 0.12313,-2.72397 -0.15017,-5.46191 -0.44774,-8.16481 -0.57006,-3.4801 -1.41077,-6.90961 -3.20367,-9.9887 -1.35959,-2.14348 -2.62079,-3.94811 -4.44148,-5.75734 -3.50713,-3.48505 -7.98321,-5.72618 -12.33817,-7.97291 -2.8072,-1.02582 -3.3568,-1.38502 -6.35498,-1.83321 -4.7282,-0.7068 -9.46148,-0.0281 -14.054749,1.14367 -4.04281,1.07253 -8.30852,2.0136 -11.72012,4.5749 z"
         sodipodi:nodetypes="ccscccccscscscccsccscscsccscsccc"
         inkscape:label="path1" />
    </g>
  </g>
</svg>
