<?xml version="1.0" encoding="UTF-8" standalone="no"?>
<!-- Created with Inkscape (http://www.inkscape.org/) -->

<svg
   width="124.05539mm"
   height="140.42102mm"
   viewBox="0 0 124.05539 140.42102"
   version="1.1"
   id="svg1"
   xmlns:xlink="http://www.w3.org/1999/xlink"
   xmlns="http://www.w3.org/2000/svg"
   xmlns:svg="http://www.w3.org/2000/svg">
  <defs
     id="defs1">
    <linearGradient
       id="linearGradient2645-1">
      <stop
         style="stop-color:#00d4aa;stop-opacity:1;"
         offset="0"
         id="stop2645" />
      <stop
         style="stop-color:#00d3aa;stop-opacity:1;"
         offset="0.49319372"
         id="stop2650" />
      <stop
         style="stop-color:#0094a8;stop-opacity:1;"
         offset="1"
         id="stop2649" />
    </linearGradient>
    <filter
       style="color-interpolation-filters:sRGB"
       id="filter2645"
       x="-0.077682719"
       y="-0.050661597"
       width="1.1553653"
       height="1.1013232">
      <feFlood
         result="flood"
         in="SourceGraphic"
         flood-opacity="1.000000"
         flood-color="rgb(0,0,0)"
         id="feFlood2644" />
      <feGaussianBlur
         result="blur"
         in="SourceGraphic"
         stdDeviation="2.000000"
         id="feGaussianBlur2644" />
      <feOffset
         result="offset"
         in="blur"
         dx="0.000000"
         dy="0.000000"
         id="feOffset2644" />
      <feComposite
         result="comp1"
         operator="in"
         in="flood"
         in2="offset"
         id="feComposite2644" />
      <feComposite
         result="comp2"
         operator="over"
         in="SourceGraphic"
         in2="comp1"
         id="feComposite2645" />
    </filter>
    <radialGradient
       xlink:href="#linearGradient2645-1"
       id="radialGradient2646"
       cx="64.666069"
       cy="79.493263"
       fx="64.666069"
       fy="79.493263"
       r="61.028725"
       gradientTransform="matrix(1,0,0,1.0198452,0,-1.5775618)"
       gradientUnits="userSpaceOnUse"
       spreadMethod="pad" />
  </defs>
  <g
     id="layer1"
     transform="translate(-51.332742,-63.671152)">
    <path
       style="opacity:1;fill:url(#radialGradient2646);fill-opacity:1;fill-rule:nonzero;stroke:#00f1cd;stroke-width:9.565;stroke-linecap:butt;stroke-linejoin:round;stroke-dasharray:none;stroke-opacity:1;paint-order:stroke markers fill"
       id="path4"
       d="M 125.69479,110.97845 68.449492,143.30076 11.834899,109.88603 12.465607,44.148991 69.710908,11.82668 126.3255,45.241409 Z"
       transform="translate(44.280123,56.626898)" />
    <path
       style="fill:#ffffff;fill-opacity:1;stroke-width:0.32;stroke-dasharray:none;filter:url(#filter2645)"
       id="path5"
       d="m 137.63096,102.47238 c -0.37466,-1.82149 -1.19916,-3.551081 -2.08348,-5.213051 -1.21069,-2.208115 -2.95396,-4.102101 -4.79034,-5.902976 -2.2082,-1.992093 -4.57355,-3.006002 -7.48065,-4.353093 -0.39347,-0.182329 -1.52879,-0.323385 -1.93816,-0.385743 -2.25724,-0.177058 -4.56153,-0.259006 -6.8112,0.05042 -0.51924,0.07143 -1.03054,0.183776 -1.54582,0.275669 -2.23533,0.512008 -4.41624,1.29105 -6.37946,2.394533 -1.37979,0.775551 -2.13534,1.369852 -3.41494,2.283932 -2.19385,1.672497 -4.187461,3.561005 -5.821973,5.697186 -0.979083,1.279603 -1.265017,1.827739 -2.088571,3.177983 -1.31578,2.35546 -2.202818,4.91313 -2.478804,7.54668 -0.04923,0.46948 -0.04745,0.9422 -0.07112,1.4133 -0.0025,1.88982 0.287931,3.77971 0.948194,5.57698 0.43462,1.18306 0.694333,1.58779 1.28746,2.71926 1.079146,1.89914 2.39135,3.69485 4.108595,5.17622 1.240919,1.07048 1.793049,1.36274 3.199539,2.28159 0.62577,0.35162 1.24018,0.7203 1.87733,1.05488 1.93863,1.01803 3.8856,2.0235 5.84882,3.00236 1.11722,0.55704 2.88794,1.29022 4.0431,1.78334 2.00336,0.85524 1.94041,0.82969 3.9271,1.68386 1.29704,0.58956 2.47011,1.10842 3.74133,1.74399 0.71106,0.35551 1.45557,0.66716 2.1134,1.09816 0.48329,0.31663 -1.99561,-1.14451 -1.58576,-0.75246 0.58944,0.56386 1.43716,0.84946 2.14548,1.28789 0.67328,0.41674 1.3326,0.85157 1.99891,1.27735 2.44116,1.64947 4.79035,3.4744 6.61134,5.70135 0.29253,0.35774 0.55164,0.7368 0.82747,1.1052 1.32115,1.98381 1.96448,4.23976 2.2442,6.52566 0.0691,0.56456 0.0955,1.13273 0.1433,1.69909 0.091,2.10664 -0.10801,4.22809 -0.78569,6.25282 -0.40564,1.21184 -0.6177,1.52982 -1.19973,2.68675 -1.15395,2.02047 -2.5786,3.91457 -4.19658,5.65587 -1.0836,1.16618 -1.65826,1.66042 -2.83384,2.75335 -2.42551,2.0787 -5.08002,3.94784 -8.00183,5.42664 -0.54077,0.2737 -1.09875,0.51872 -1.64813,0.77808 -2.80818,1.15742 -5.81698,1.90109 -8.86144,2.34256 -0.60757,0.0881 -1.21935,0.15056 -1.82903,0.22585 -2.42314,0.2647 -4.88791,0.30743 -7.312278,0.0183 -1.514554,-0.18063 -1.957379,-0.32393 -3.420406,-0.66176 -1.308669,-0.42352 -1.674448,-0.49225 -2.887165,-1.074 -0.430371,-0.20647 -1.699702,-0.85757 -1.255604,-0.6763 0.959467,0.39166 1.778211,1.1039 2.806353,1.3093 0.546194,0.10909 -0.854533,-0.65273 -1.260222,-1.00041 -0.460268,-0.39444 -0.890651,-0.81635 -1.335971,-1.22452 -2.40808,-2.42546 -4.681889,-5.1106 -6.298692,-8.03678 -0.345691,-0.62565 -0.630823,-1.27712 -0.946235,-1.91569 -0.889646,-2.02698 -1.466896,-4.14882 -1.876097,-6.29385 -0.265718,-1.3929 -0.501921,-2.94547 -0.496336,-4.36497 0.0025,-0.6959 0.10585,-1.38851 0.158826,-2.08277 0.269738,-1.96369 1.151739,-3.74254 2.045112,-5.52103 0,0 -4.008446,-2.03399 -4.008446,-2.03399 v 0 c -0.845576,1.84499 -1.721367,3.68743 -2.036118,5.6836 -0.05636,0.7122 -0.164385,1.42258 -0.169156,2.13657 -0.0089,1.42939 0.23002,3.01439 0.483716,4.41909 0.39074,2.1636 0.933309,4.3066 1.800818,6.35893 0.299573,0.64657 0.563077,1.30773 0.898705,1.9397 0.31816,0.59907 0.68717,1.17556 1.05996,1.74839 1.471934,2.2618 3.206329,4.38788 5.120338,6.35921 0.405257,0.39202 1.928029,1.91826 2.481959,2.25912 1.569311,0.96571 5.457811,3.29095 7.895647,4.11768 0.499822,0.16949 1.015623,0.29775 1.523434,0.44663 1.492748,0.31153 1.900538,0.43572 3.443648,0.5957 2.44741,0.25372 4.92703,0.18309 7.36636,-0.0989 3.69867,-0.49557 7.39404,-1.19771 10.7771,-2.69055 1.47922,-0.72228 1.87973,-0.88325 3.30219,-1.71978 2.28846,-1.34582 4.40359,-2.91854 6.37449,-4.62237 1.1779,-1.09499 1.77884,-1.61611 2.87107,-2.78073 1.65128,-1.7607 3.13462,-3.66175 4.33625,-5.6991 0.23489,-0.45612 0.4949,-0.90238 0.70468,-1.36836 1.11034,-2.46648 1.42104,-5.13798 1.33594,-7.7803 -0.0698,-1.16455 -0.0966,-2.14176 -0.28705,-3.29314 -0.29508,-1.78305 -0.92393,-3.52257 -1.90765,-5.09202 -0.27457,-0.38119 -0.53009,-0.77412 -0.82373,-1.14353 -1.83895,-2.31356 -4.27475,-4.18228 -6.77332,-5.88798 -1.08917,-0.69895 -3.0412,-1.97528 -4.16817,-2.60079 -3.89965,-2.1645 -7.84299,-4.29873 -11.96922,-6.09807 -1.97188,-0.84444 -3.96164,-1.66209 -5.91711,-2.53716 -0.67695,-0.30292 -1.52038,-1.44952 -2.01624,-0.93491 -0.48871,0.50717 1.25827,0.721 1.91169,1.04341 0.63762,0.31462 -1.24284,-0.68001 -1.86427,-1.02001 -1.38458,-0.87772 -1.94118,-1.16702 -3.17259,-2.18888 -1.72144,-1.42851 -3.05412,-3.16968 -4.125477,-5.0367 -0.588293,-1.09066 -0.85765,-1.50731 -1.298745,-2.64731 -0.678011,-1.75226 -0.998778,-3.6017 -1.012977,-5.45483 0.01336,-0.46034 6.75e-4,-0.92187 0.03995,-1.38101 0.221279,-2.59338 1.052212,-5.12464 2.308909,-7.45661 0.82866,-1.38764 1.03801,-1.82577 2.03599,-3.137981 1.60407,-2.10914 3.5674,-3.976035 5.74125,-5.611899 0.57116,-0.394275 1.12461,-0.810392 1.7135,-1.182837 2.43603,-1.540651 5.17849,-2.672304 8.08362,-3.254271 0.51155,-0.07924 1.01995,-0.177495 1.53467,-0.237854 2.26204,-0.265231 4.57576,-0.165896 6.82783,0.115516 0.32879,0.06649 0.66224,0.116297 0.98635,0.199383 0.30407,0.07797 1.15457,0.445688 0.89498,0.282893 -1.05876,-0.663962 -2.20852,-1.201108 -3.31397,-1.799876 -0.28035,-0.151862 0.56816,0.293355 0.83868,0.459125 0.78008,0.478027 1.05176,0.734587 1.77288,1.310388 1.85791,1.748233 3.58302,3.620342 4.83188,5.779272 0.86348,1.560024 1.63578,3.191413 1.93798,4.926231 z" />
  </g>
</svg>
